<svg xmlns="http://www.w3.org/2000/svg" width="30" height="30" id="camera-not-allowed"><path fill-rule="evenodd" d="M3.882 23.996A1.996 1.996 0 0 1 2 22.006V9.993C2 8.891 2.896 8 4.002 8H9.23l1.854-2.777A.5.5 0 0 1 11.5 5h7a.5.5 0 0 1 .416.223l1.498 2.242-.723.723L18.23 6h-6.46L9.916 8.777A.5.5 0 0 1 9.5 9H4.002A.997.997 0 0 0 3 9.993v12.014c0 .55.448.993 1.008.993h.87l-.996.996zm4.24.004h17.87C27.105 24 28 23.11 28 22.007V9.993A1.994 1.994 0 0 0 25.998 8h-1.877l-1 1h2.877A.994.994 0 0 1 27 9.993v12.014c0 .55-.446.993-1.008.993H9.122l-1 1zm11.493-11.493a5.5 5.5 0 0 1-7.608 7.608l.726-.727a4.5 4.5 0 0 0 6.155-6.155l.727-.726zm-2.263-1.98a5.5 5.5 0 0 0-7.325 7.325l.762-.762a4.5 4.5 0 0 1 5.8-5.8l.763-.763zM23 13a1 1 0 1 0 0-2 1 1 0 0 0 0 2zm3.146-9.854-24 24a.5.5 0 1 0 .708.708l24-24a.5.5 0 1 0-.708-.708z"></path></svg>