<svg xmlns="http://www.w3.org/2000/svg" xmlns:xlink="http://www.w3.org/1999/xlink" width="500" zoomAndPan="magnify" viewBox="0 0 375 374.999991" height="500" preserveAspectRatio="xMidYMid meet" version="1.0"><defs><clipPath id="0f1a988bdc"><path d="M 172 189 L 203 189 L 203 212 L 172 212 Z M 172 189 " clip-rule="nonzero"/></clipPath><clipPath id="fad75202db"><path d="M 172.949219 162.71875 L 202.945312 163.246094 L 202.09375 211.988281 L 172.097656 211.464844 Z M 172.949219 162.71875 " clip-rule="nonzero"/></clipPath><clipPath id="8602d7d378"><path d="M 172.941406 162.71875 L 202.9375 163.242188 L 202.085938 211.988281 L 172.089844 211.464844 Z M 172.941406 162.71875 " clip-rule="nonzero"/></clipPath><clipPath id="fa1df94938"><path d="M 179 163 L 196 163 L 196 209 L 179 209 Z M 179 163 " clip-rule="nonzero"/></clipPath><clipPath id="2c6bf7988b"><path d="M 172.949219 162.71875 L 202.945312 163.246094 L 202.09375 211.988281 L 172.097656 211.464844 Z M 172.949219 162.71875 " clip-rule="nonzero"/></clipPath><clipPath id="ee79dde004"><path d="M 172.941406 162.71875 L 202.9375 163.242188 L 202.085938 211.988281 L 172.089844 211.464844 Z M 172.941406 162.71875 " clip-rule="nonzero"/></clipPath><clipPath id="333792d151"><path d="M 172 189 L 203 189 L 203 212 L 172 212 Z M 172 189 " clip-rule="nonzero"/></clipPath><clipPath id="003030ea94"><path d="M 172.929688 162.71875 L 202.925781 163.246094 L 202.074219 211.988281 L 172.078125 211.464844 Z M 172.929688 162.71875 " clip-rule="nonzero"/></clipPath><clipPath id="bd908dd460"><path d="M 172.921875 162.71875 L 202.917969 163.242188 L 202.066406 211.988281 L 172.070312 211.464844 Z M 172.921875 162.71875 " clip-rule="nonzero"/></clipPath><clipPath id="cdf5d61782"><path d="M 179 163 L 196 163 L 196 209 L 179 209 Z M 179 163 " clip-rule="nonzero"/></clipPath><clipPath id="2b58b59458"><path d="M 172.929688 162.71875 L 202.925781 163.246094 L 202.074219 211.988281 L 172.078125 211.464844 Z M 172.929688 162.71875 " clip-rule="nonzero"/></clipPath><clipPath id="4bf009f55c"><path d="M 172.921875 162.71875 L 202.917969 163.242188 L 202.066406 211.988281 L 172.070312 211.464844 Z M 172.921875 162.71875 " clip-rule="nonzero"/></clipPath></defs><g clip-path="url(#0f1a988bdc)"><g clip-path="url(#fad75202db)"><g clip-path="url(#8602d7d378)"><path fill="#027864" d="M 201.210938 194.417969 L 196.324219 189.359375 L 196.253906 193.1875 L 199.261719 196.300781 C 199.789062 196.847656 199.773438 197.726562 199.226562 198.253906 L 188.121094 208.980469 C 187.574219 209.507812 186.695312 209.492188 186.167969 208.945312 L 175.441406 197.839844 C 174.914062 197.292969 174.929688 196.414062 175.476562 195.886719 L 178.589844 192.878906 L 178.65625 189.050781 L 173.59375 193.9375 C 172.808594 194.695312 172.367188 195.714844 172.347656 196.808594 C 172.328125 197.902344 172.734375 198.9375 173.492188 199.722656 L 184.21875 210.828125 C 184.976562 211.613281 185.996094 212.054688 187.089844 212.074219 C 188.183594 212.09375 189.21875 211.6875 190.003906 210.929688 L 201.109375 200.203125 C 201.894531 199.445312 202.335938 198.425781 202.355469 197.332031 C 202.375 196.238281 201.96875 195.203125 201.210938 194.417969 " fill-opacity="1" fill-rule="nonzero"/></g></g></g><g clip-path="url(#fa1df94938)"><g clip-path="url(#2c6bf7988b)"><g clip-path="url(#ee79dde004)"><path fill="#027864" d="M 193.214844 167.378906 L 192.589844 203.078125 L 194.984375 200.769531 L 195.542969 168.683594 Z M 189.273438 206.28125 L 191.667969 203.96875 L 192.359375 164.324219 L 190.03125 163.019531 Z M 179.597656 200.5 L 181.90625 202.894531 L 182.296875 180.421875 L 179.925781 181.648438 Z M 182.796875 203.816406 L 185.109375 206.207031 L 185.632812 176.175781 L 183.257812 177.402344 Z M 186 207.132812 L 186.988281 208.152344 C 187.042969 208.210938 187.109375 208.226562 187.15625 208.226562 C 187.203125 208.226562 187.269531 208.214844 187.328125 208.160156 L 188.351562 207.171875 L 188.96875 171.765625 L 186.597656 172.992188 L 186 207.132812 " fill-opacity="1" fill-rule="nonzero"/></g></g></g><g clip-path="url(#333792d151)"><g clip-path="url(#003030ea94)"><g clip-path="url(#bd908dd460)"><path fill="#027864" d="M 201.191406 194.417969 L 196.304688 189.359375 L 196.238281 193.1875 L 199.242188 196.300781 C 199.769531 196.847656 199.753906 197.726562 199.207031 198.253906 L 188.101562 208.980469 C 187.554688 209.507812 186.675781 209.492188 186.148438 208.945312 L 175.421875 197.839844 C 174.894531 197.292969 174.910156 196.414062 175.457031 195.886719 L 178.570312 192.878906 L 178.636719 189.050781 L 173.574219 193.9375 C 172.789062 194.695312 172.347656 195.714844 172.328125 196.808594 C 172.308594 197.902344 172.714844 198.9375 173.476562 199.722656 L 184.199219 210.828125 C 184.957031 211.613281 185.976562 212.054688 187.070312 212.074219 C 188.164062 212.09375 189.199219 211.6875 189.984375 210.929688 L 201.089844 200.203125 C 201.875 199.445312 202.316406 198.425781 202.335938 197.332031 C 202.355469 196.238281 201.949219 195.203125 201.191406 194.417969 " fill-opacity="1" fill-rule="nonzero"/></g></g></g><g clip-path="url(#cdf5d61782)"><g clip-path="url(#2b58b59458)"><g clip-path="url(#4bf009f55c)"><path fill="#027864" d="M 193.195312 167.378906 L 192.570312 203.078125 L 194.964844 200.769531 L 195.523438 168.683594 Z M 189.253906 206.28125 L 191.648438 203.96875 L 192.339844 164.324219 L 190.011719 163.019531 Z M 179.578125 200.5 L 181.886719 202.894531 L 182.28125 180.421875 L 179.90625 181.648438 Z M 182.777344 203.816406 L 185.089844 206.207031 L 185.613281 176.175781 L 183.238281 177.402344 Z M 185.980469 207.132812 L 186.96875 208.152344 C 187.023438 208.210938 187.089844 208.226562 187.136719 208.226562 C 187.183594 208.226562 187.253906 208.214844 187.3125 208.160156 L 188.332031 207.171875 L 188.949219 171.765625 L 186.578125 172.992188 L 185.980469 207.132812 " fill-opacity="1" fill-rule="nonzero"/></g></g></g></svg>